<svg width="19" height="30" viewBox="0 0 19 30" fill="none" xmlns="http://www.w3.org/2000/svg">
<path d="M4 5.33325C4 4.37325 4.24 3.48436 4.72 2.66658C5.2 1.84881 5.84889 1.19992 6.66667 0.719917C7.48445 0.239918 8.37333 -8.2016e-05 9.33333 -8.2016e-05C10.2933 -8.2016e-05 11.1822 0.239918 12 0.719917C12.8178 1.19992 13.4667 1.84881 13.9467 2.66658C14.4267 3.48436 14.6667 4.37325 14.6667 5.33325V12.3466C15.8933 13.1999 16.8622 14.2844 17.5733 15.5999C18.3022 16.9688 18.6667 18.4355 18.6667 19.9999C18.6667 21.6888 18.24 23.2621 17.3867 24.7199C16.5689 26.1244 15.4578 27.2355 14.0533 28.0533C12.5956 28.9066 11.0222 29.3333 9.33333 29.3333C7.64445 29.3333 6.07111 28.9066 4.61333 28.0533C3.20889 27.2355 2.09778 26.1244 1.28 24.7199C0.426667 23.2621 0 21.6888 0 19.9999C0 18.4355 0.364444 16.9688 1.09333 15.5999C1.80444 14.2844 2.77333 13.1999 4 12.3466V5.33325ZM5.52 14.5333C4.63111 15.1555 3.93333 15.9466 3.42667 16.9066C2.92 17.8666 2.66667 18.8977 2.66667 19.9999C2.66667 21.2088 2.96444 22.3244 3.56 23.3466C4.15556 24.3688 4.96445 25.1777 5.98667 25.7733C7.00889 26.3688 8.12444 26.6666 9.33333 26.6666C10.5422 26.6666 11.6578 26.3688 12.68 25.7733C13.7022 25.1777 14.5111 24.3688 15.1067 23.3466C15.7022 22.3244 16 21.2088 16 19.9999C16 18.8977 15.7467 17.8666 15.24 16.9066C14.7333 15.9466 14.0356 15.1555 13.1467 14.5333L12 13.7333V5.33325C12 4.85325 11.88 4.40881 11.64 3.99992C11.4 3.59103 11.0756 3.26658 10.6667 3.02658C10.2578 2.78658 9.81333 2.66658 9.33333 2.66658C8.85333 2.66658 8.40889 2.78658 8 3.02658C7.59111 3.26658 7.26667 3.59103 7.02667 3.99992C6.78667 4.40881 6.66667 4.85325 6.66667 5.33325V13.7333L5.52 14.5333ZM4 19.9999H14.6667C14.6667 20.9599 14.4267 21.8488 13.9467 22.6666C13.4667 23.4844 12.8178 24.1333 12 24.6133C11.1822 25.0933 10.2933 25.3333 9.33333 25.3333C8.37333 25.3333 7.48445 25.0933 6.66667 24.6133C5.84889 24.1333 5.2 23.4844 4.72 22.6666C4.24 21.8488 4 20.9599 4 19.9999Z" fill="#FF4500"/>
</svg>
