<svg width="24" height="29" viewBox="0 0 24 29" fill="none" xmlns="http://www.w3.org/2000/svg">
<path d="M12 3.76006L5.41333 10.3734C4.20444 11.5645 3.38667 12.9689 2.96 14.5867C2.55111 16.1689 2.55111 17.7512 2.96 19.3334C3.38667 20.9512 4.2 22.3601 5.4 23.5601C6.6 24.7601 8.00889 25.5734 9.62667 26.0001C11.2089 26.4089 12.7911 26.4089 14.3733 26.0001C15.9911 25.5734 17.4 24.7601 18.6 23.5601C19.8 22.3601 20.6133 20.9512 21.04 19.3334C21.4489 17.7512 21.4489 16.1689 21.04 14.5867C20.6133 12.9689 19.7956 11.5645 18.5867 10.3734L12 3.76006ZM12 5.53131e-05L20.48 8.48005C22.0267 10.0089 23.0667 11.8223 23.6 13.9201C24.1333 15.9467 24.1333 17.9734 23.6 20.0001C23.0667 22.0978 22.0311 23.9156 20.4933 25.4534C18.9556 26.9912 17.1378 28.0356 15.04 28.5867C13.0133 29.1023 10.9867 29.1023 8.96 28.5867C6.86222 28.0356 5.04444 26.9912 3.50667 25.4534C1.96889 23.9156 0.933333 22.0978 0.4 20.0001C-0.133333 17.9734 -0.133333 15.9467 0.4 13.9201C0.933333 11.8223 1.97333 10.0089 3.52 8.48005L12 5.53131e-05ZM13.3333 14.2934H16.6667L10.6667 22.9601V16.9601H7.33333L13.3333 8.29339V14.2934Z" fill="#FF4500"/>
</svg>
