<svg width="30" height="26" viewBox="0 0 30 26" fill="none" xmlns="http://www.w3.org/2000/svg">
<path d="M14.6667 -8.2016e-05C16.3556 -8.2016e-05 17.9289 0.426584 19.3867 1.27992C20.7911 2.0977 21.9022 3.20881 22.72 4.61325C23.5733 6.07103 24 7.64436 24 9.33325V9.78658C25.0311 10.1421 25.9511 10.6933 26.76 11.4399C27.5689 12.1866 28.2 13.071 28.6533 14.0933C29.1067 15.1155 29.3333 16.1955 29.3333 17.3333C29.3333 18.7733 28.9689 20.1155 28.24 21.3599C27.5289 22.5688 26.5689 23.5288 25.36 24.2399C24.1156 24.9688 22.7733 25.3333 21.3333 25.3333H8C6.56 25.3333 5.21778 24.9688 3.97333 24.2399C2.76444 23.5288 1.80444 22.5688 1.09333 21.3599C0.364444 20.1155 0 18.7733 0 17.3333C0 16.1955 0.226667 15.1155 0.68 14.0933C1.13333 13.071 1.76444 12.1866 2.57333 11.4399C3.38222 10.6933 4.30222 10.1421 5.33333 9.78658V9.33325C5.33333 7.64436 5.76 6.07103 6.61333 4.61325C7.43111 3.20881 8.54222 2.0977 9.94667 1.27992C11.4044 0.426584 12.9778 -8.2016e-05 14.6667 -8.2016e-05ZM14.6667 2.66658C13.4578 2.66658 12.3422 2.96436 11.32 3.55992C10.2978 4.15547 9.48889 4.96436 8.89333 5.98659C8.29778 7.00881 8 8.12436 8 9.33325L8.10667 11.6533L6.24 12.2933C5.17333 12.6666 4.31111 13.3155 3.65333 14.2399C2.99556 15.1644 2.66667 16.1955 2.66667 17.3333C2.66667 18.2933 2.90667 19.1821 3.38667 19.9999C3.86667 20.8177 4.51556 21.4666 5.33333 21.9466C6.15111 22.4266 7.04 22.6666 8 22.6666H21.3333C22.2933 22.6666 23.1822 22.4266 24 21.9466C24.8178 21.4666 25.4667 20.8177 25.9467 19.9999C26.4267 19.1821 26.6667 18.2933 26.6667 17.3333C26.6667 16.3733 26.4267 15.4844 25.9467 14.6666C25.4667 13.8488 24.8178 13.1999 24 12.7199C23.1822 12.2399 22.2933 11.9999 21.3333 11.9999C20.1778 11.9999 19.1333 12.3377 18.2 13.0133C17.2667 13.6888 16.6222 14.5688 16.2667 15.6533L13.7333 14.7999C14.0889 13.751 14.64 12.8088 15.3867 11.9733C16.1333 11.1377 17.0222 10.4888 18.0533 10.0266C19.0844 9.56436 20.1778 9.33325 21.3333 9.33325C21.3333 8.12436 21.0356 7.00881 20.44 5.98659C19.8444 4.96436 19.0356 4.15547 18.0133 3.55992C16.9911 2.96436 15.8756 2.66658 14.6667 2.66658Z" fill="#FF4500"/>
</svg>
