<svg width="28" height="24" viewBox="0 0 28 24" fill="none" xmlns="http://www.w3.org/2000/svg">
<path d="M12.3733 12.2933L17.3333 4L28 24H0L9.33333 6.66667L12.3733 12.2933ZM13.84 14.9867L17.3067 21.3333H23.5467L17.2 9.41333L13.84 14.9867ZM4.45333 21.3333H14.2133L9.33333 12.2933L4.45333 21.3333ZM4.66667 6.66667C4.06222 6.66667 3.50667 6.51555 3 6.21333C2.49333 5.91111 2.08889 5.50667 1.78667 5C1.48444 4.49333 1.33333 3.93778 1.33333 3.33333C1.33333 2.72889 1.48444 2.17333 1.78667 1.66667C2.08889 1.16 2.49333 0.755554 3 0.453333C3.50667 0.15111 4.06222 0 4.66667 0C5.27111 0 5.82667 0.15111 6.33333 0.453333C6.84 0.755554 7.24444 1.16 7.54667 1.66667C7.84889 2.17333 8 2.72889 8 3.33333C8 3.93778 7.84889 4.49333 7.54667 5C7.24444 5.50667 6.84 5.91111 6.33333 6.21333C5.82667 6.51555 5.27111 6.66667 4.66667 6.66667Z" fill="#FF4500"/>
</svg>
