<svg width="14" height="14" viewBox="0 0 14 14" fill="none" xmlns="http://www.w3.org/2000/svg">
<path d="M6.66667 6.00016V4.00016L9.33333 6.66683L6.66667 9.3335V7.3335H4V6.00016H6.66667ZM6.66667 0.000162125C7.57333 0.000162125 8.44 0.173496 9.26667 0.520163C10.0578 0.857941 10.7622 1.33572 11.38 1.9535C11.9978 2.57127 12.4756 3.27572 12.8133 4.06683C13.16 4.8935 13.3333 5.76016 13.3333 6.66683C13.3333 7.5735 13.16 8.44016 12.8133 9.26683C12.4756 10.0579 11.9978 10.7624 11.38 11.3802C10.7622 11.9979 10.0578 12.4757 9.26667 12.8135C8.44 13.1602 7.57333 13.3335 6.66667 13.3335C5.76 13.3335 4.89333 13.1602 4.06667 12.8135C3.27556 12.4757 2.57111 11.9979 1.95333 11.3802C1.33556 10.7624 0.857778 10.0579 0.52 9.26683C0.173333 8.44016 0 7.5735 0 6.66683C0 5.76016 0.173333 4.8935 0.52 4.06683C0.857778 3.27572 1.33556 2.57127 1.95333 1.9535C2.57111 1.33572 3.27556 0.857941 4.06667 0.520163C4.89333 0.173496 5.76 0.000162125 6.66667 0.000162125ZM6.66667 12.0002C7.63556 12.0002 8.53333 11.7557 9.36 11.2668C10.16 10.7957 10.7956 10.1602 11.2667 9.36016C11.7556 8.5335 12 7.63572 12 6.66683C12 5.69794 11.7556 4.80016 11.2667 3.9735C10.7956 3.1735 10.16 2.53794 9.36 2.06683C8.53333 1.57794 7.63556 1.3335 6.66667 1.3335C5.69778 1.3335 4.8 1.57794 3.97333 2.06683C3.17333 2.53794 2.53778 3.1735 2.06667 3.9735C1.57778 4.80016 1.33333 5.69794 1.33333 6.66683C1.33333 7.63572 1.57778 8.5335 2.06667 9.36016C2.53778 10.1602 3.17333 10.7957 3.97333 11.2668C4.8 11.7557 5.69778 12.0002 6.66667 12.0002Z" fill="#FF4500"/>
</svg>
