<svg width="27" height="28" viewBox="0 0 27 28" fill="none" xmlns="http://www.w3.org/2000/svg">
<path d="M2.66667 6.85333V23.9467L9.41333 21.0667L17.4133 25.0667L24 22.24V5.14667L25.7333 4.4C25.9111 4.32889 26.0844 4.32889 26.2533 4.4C26.4222 4.47111 26.5422 4.58667 26.6133 4.74667C26.6489 4.83555 26.6667 4.92444 26.6667 5.01333V24L17.3333 28L9.33333 24L0.933333 27.6C0.755556 27.6711 0.582222 27.6711 0.413333 27.6C0.244444 27.5289 0.124444 27.4133 0.0533333 27.2533C0.0177778 27.1644 0 27.0756 0 26.9867V8L2.66667 6.85333ZM18.9867 13.6533L13.3333 19.3067L7.68 13.6533C6.64889 12.64 5.95556 11.4311 5.6 10.0267C5.24444 8.67555 5.24444 7.32444 5.6 5.97333C5.95556 4.56889 6.64444 3.35555 7.66667 2.33333C8.68889 1.31111 9.90222 0.622221 11.3067 0.266666C12.6578 -0.0888901 14.0089 -0.0888901 15.36 0.266666C16.7644 0.622221 17.9778 1.31111 19 2.33333C20.0222 3.35555 20.7111 4.56889 21.0667 5.97333C21.4222 7.32444 21.4222 8.67555 21.0667 10.0267C20.7111 11.4311 20.0178 12.64 18.9867 13.6533ZM13.3333 15.5467L17.0933 11.76C17.7867 11.0844 18.2533 10.2889 18.4933 9.37333C18.7333 8.45778 18.7333 7.54222 18.4933 6.62667C18.2533 5.71111 17.7911 4.91111 17.1067 4.22667C16.4222 3.54222 15.6222 3.08 14.7067 2.84C13.7911 2.6 12.8756 2.6 11.96 2.84C11.0444 3.08 10.2444 3.54222 9.56 4.22667C8.87556 4.91111 8.41333 5.71111 8.17333 6.62667C7.93333 7.54222 7.93333 8.45778 8.17333 9.37333C8.41333 10.2889 8.88 11.0844 9.57333 11.76L13.3333 15.5467Z" fill="#FF4500"/>
</svg>
