<svg width="26" height="27" viewBox="0 0 26 27" fill="none" xmlns="http://www.w3.org/2000/svg">
<path d="M5.33333 -0.000164032C7.09333 -0.000164032 8.72 0.462059 10.2133 1.3865C11.6711 2.27539 12.8 3.47539 13.6 4.9865C14.4 3.8665 15.4044 2.97762 16.6133 2.31984C17.8756 1.66206 19.2267 1.33317 20.6667 1.33317H25.3333V4.6665C25.3333 6.23095 24.9422 7.68873 24.16 9.03984C23.3956 10.3554 22.3556 11.3954 21.04 12.1598C19.6889 12.9421 18.2311 13.3332 16.6667 13.3332H14.6667V14.6665H21.3333V23.9998C21.3333 24.4798 21.2133 24.9243 20.9733 25.3332C20.7333 25.7421 20.4089 26.0665 20 26.3065C19.5911 26.5465 19.1467 26.6665 18.6667 26.6665H8C7.52 26.6665 7.07556 26.5465 6.66667 26.3065C6.25778 26.0665 5.93333 25.7421 5.69333 25.3332C5.45333 24.9243 5.33333 24.4798 5.33333 23.9998V14.6665H12V11.9998H9.33333C7.64444 11.9998 6.07111 11.5732 4.61333 10.7198C3.20889 9.90206 2.09778 8.79095 1.28 7.3865C0.426667 5.92873 0 4.35539 0 2.6665V-0.000164032H5.33333ZM18.6667 17.3332H8V23.9998H18.6667V17.3332ZM22.6667 3.99984H20.6667C19.5822 3.99984 18.5822 4.27095 17.6667 4.81317C16.7511 5.35539 16.0222 6.08428 15.48 6.99984C14.9378 7.91539 14.6667 8.91539 14.6667 9.99984V10.6665H16.6667C17.7511 10.6665 18.7511 10.3954 19.6667 9.85317C20.5822 9.31095 21.3111 8.58206 21.8533 7.6665C22.3956 6.75095 22.6667 5.75095 22.6667 4.6665V3.99984ZM5.33333 2.6665H2.66667C2.66667 3.87539 2.96444 4.99095 3.56 6.01317C4.15556 7.03539 4.96444 7.84428 5.98667 8.43984C7.00889 9.03539 8.12444 9.33317 9.33333 9.33317H12C12 8.12428 11.7022 7.00873 11.1067 5.9865C10.5111 4.96428 9.70222 4.15539 8.68 3.55984C7.65778 2.96428 6.54222 2.6665 5.33333 2.6665Z" fill="#FF4500"/>
</svg>
