<svg width="30" height="27" viewBox="0 0 30 27" fill="none" xmlns="http://www.w3.org/2000/svg">
<path d="M24 26.1865H5.33333C4.96 26.1865 4.64444 26.0576 4.38667 25.7999C4.12889 25.5421 4 25.2265 4 24.8532V12.8532H0L13.76 0.346523C14.0267 0.115412 14.3289 -0.000143051 14.6667 -0.000143051C15.0044 -0.000143051 15.3067 0.115412 15.5733 0.346523L29.3333 12.8532H25.3333V24.8532C25.3333 25.2265 25.2044 25.5421 24.9467 25.7999C24.6889 26.0576 24.3733 26.1865 24 26.1865ZM6.66667 23.5199H22.6667V10.3999L14.6667 3.11986L6.66667 10.3999V23.5199ZM10.1333 16.6132C10.0444 16.2576 10 15.8932 10 15.5199C10 15.1465 10.0444 14.791 10.1333 14.4532L8.8 13.6799L10.1333 11.3599L11.4667 12.1332C12 11.6176 12.6222 11.2532 13.3333 11.0399V9.51986H16V11.0399C16.7111 11.2532 17.3333 11.6176 17.8667 12.1332L19.2 11.3599L20.5333 13.6799L19.2 14.4532C19.2889 14.791 19.3333 15.1465 19.3333 15.5199C19.3333 15.8932 19.2889 16.2576 19.2 16.6132L20.5333 17.3599L19.2 19.6799L17.8667 18.9065C17.3333 19.4221 16.7111 19.7865 16 19.9999V21.5199H13.3333V19.9999C12.6222 19.7865 12 19.4221 11.4667 18.9065L10.1333 19.6799L8.8 17.3599L10.1333 16.6132ZM14.6667 17.5199C15.2178 17.5199 15.6889 17.3243 16.08 16.9332C16.4711 16.5421 16.6667 16.071 16.6667 15.5199C16.6667 14.9687 16.4711 14.4976 16.08 14.1065C15.6889 13.7154 15.2178 13.5199 14.6667 13.5199C14.1156 13.5199 13.6444 13.7154 13.2533 14.1065C12.8622 14.4976 12.6667 14.9687 12.6667 15.5199C12.6667 16.071 12.8622 16.5421 13.2533 16.9332C13.6444 17.3243 14.1156 17.5199 14.6667 17.5199Z" fill="#FF4500"/>
</svg>
