<svg width="27" height="27" viewBox="0 0 27 27" fill="none" xmlns="http://www.w3.org/2000/svg">
<path d="M13.3333 11.9998C14.5422 11.9998 15.6578 12.2976 16.68 12.8932C17.7022 13.4887 18.5111 14.2976 19.1067 15.3198C19.7022 16.3421 20 17.4576 20 18.6665V26.6665H17.3333V18.6665C17.3333 17.9732 17.1644 17.3287 16.8267 16.7332C16.4889 16.1376 16.0356 15.6576 15.4667 15.2932C14.8978 14.9287 14.2667 14.7198 13.5733 14.6665H13.3333C12.64 14.6665 11.9956 14.8354 11.4 15.1732C10.8044 15.5109 10.3244 15.9643 9.96 16.5332C9.59556 17.1021 9.38667 17.7332 9.33333 18.4265V26.6665H6.66667V18.6665C6.66667 17.4576 6.96444 16.3421 7.56 15.3198C8.15556 14.2976 8.96445 13.4887 9.98667 12.8932C11.0089 12.2976 12.1244 11.9998 13.3333 11.9998ZM4.66667 15.9998C5.04 15.9998 5.40444 16.0443 5.76 16.1332C5.52889 16.8087 5.38667 17.5021 5.33333 18.2132V18.7732C5.17333 18.7198 5.01333 18.6843 4.85333 18.6665H4.66667C4.15111 18.6665 3.70222 18.8398 3.32 19.1865C2.93778 19.5332 2.72 19.9643 2.66667 20.4798V20.6665V26.6665H0V20.6665C0 19.8132 0.208889 19.0309 0.626667 18.3198C1.04444 17.6087 1.60889 17.0443 2.32 16.6265C3.03111 16.2087 3.81333 15.9998 4.66667 15.9998ZM22 15.9998C22.8533 15.9998 23.6356 16.2087 24.3467 16.6265C25.0578 17.0443 25.6222 17.6087 26.04 18.3198C26.4578 19.0309 26.6667 19.8132 26.6667 20.6665V26.6665H24V20.6665C24 20.1509 23.8267 19.7021 23.48 19.3198C23.1333 18.9376 22.7022 18.7198 22.1867 18.6665H22C21.7689 18.6665 21.5467 18.7021 21.3333 18.7732V18.6665C21.3333 17.7954 21.2 16.9509 20.9333 16.1332C21.2711 16.0443 21.6267 15.9998 22 15.9998ZM4.66667 7.99984C5.27111 7.99984 5.82667 8.15095 6.33333 8.45317C6.84 8.75539 7.24444 9.15984 7.54667 9.6665C7.84889 10.1732 8 10.7287 8 11.3332C8 11.9376 7.84889 12.4932 7.54667 12.9998C7.24444 13.5065 6.84 13.9109 6.33333 14.2132C5.82667 14.5154 5.27111 14.6665 4.66667 14.6665C4.06222 14.6665 3.50667 14.5154 3 14.2132C2.49333 13.9109 2.08889 13.5065 1.78667 12.9998C1.48444 12.4932 1.33333 11.9376 1.33333 11.3332C1.33333 10.7287 1.48444 10.1732 1.78667 9.6665C2.08889 9.15984 2.49333 8.75539 3 8.45317C3.50667 8.15095 4.06222 7.99984 4.66667 7.99984ZM22 7.99984C22.6044 7.99984 23.16 8.15095 23.6667 8.45317C24.1733 8.75539 24.5778 9.15984 24.88 9.6665C25.1822 10.1732 25.3333 10.7287 25.3333 11.3332C25.3333 11.9376 25.1822 12.4932 24.88 12.9998C24.5778 13.5065 24.1733 13.9109 23.6667 14.2132C23.16 14.5154 22.6044 14.6665 22 14.6665C21.3956 14.6665 20.84 14.5154 20.3333 14.2132C19.8267 13.9109 19.4222 13.5065 19.12 12.9998C18.8178 12.4932 18.6667 11.9376 18.6667 11.3332C18.6667 10.7287 18.8178 10.1732 19.12 9.6665C19.4222 9.15984 19.8267 8.75539 20.3333 8.45317C20.84 8.15095 21.3956 7.99984 22 7.99984ZM4.66667 10.6665C4.48889 10.6665 4.33333 10.7332 4.2 10.8665C4.06667 10.9998 4 11.1554 4 11.3332C4 11.5109 4.06667 11.6665 4.2 11.7998C4.33333 11.9332 4.48889 11.9998 4.66667 11.9998C4.84444 11.9998 5 11.9332 5.13333 11.7998C5.26667 11.6665 5.33333 11.5109 5.33333 11.3332C5.33333 11.1554 5.26667 10.9998 5.13333 10.8665C5 10.7332 4.84444 10.6665 4.66667 10.6665ZM22 10.6665C21.8222 10.6665 21.6667 10.7332 21.5333 10.8665C21.4 10.9998 21.3333 11.1554 21.3333 11.3332C21.3333 11.5109 21.4 11.6665 21.5333 11.7998C21.6667 11.9332 21.8222 11.9998 22 11.9998C22.1778 11.9998 22.3333 11.9332 22.4667 11.7998C22.6 11.6665 22.6667 11.5109 22.6667 11.3332C22.6667 11.1554 22.6 10.9998 22.4667 10.8665C22.3333 10.7332 22.1778 10.6665 22 10.6665ZM13.3333 -0.000164032C14.2933 -0.000164032 15.1822 0.239836 16 0.719837C16.8178 1.19984 17.4667 1.84873 17.9467 2.6665C18.4267 3.48428 18.6667 4.37317 18.6667 5.33317C18.6667 6.29317 18.4267 7.18206 17.9467 7.99984C17.4667 8.81762 16.8178 9.4665 16 9.9465C15.1822 10.4265 14.2933 10.6665 13.3333 10.6665C12.3733 10.6665 11.4844 10.4265 10.6667 9.9465C9.84889 9.4665 9.2 8.81762 8.72 7.99984C8.24 7.18206 8 6.29317 8 5.33317C8 4.37317 8.24 3.48428 8.72 2.6665C9.2 1.84873 9.84889 1.19984 10.6667 0.719837C11.4844 0.239836 12.3733 -0.000164032 13.3333 -0.000164032ZM13.3333 2.6665C12.8533 2.6665 12.4089 2.7865 12 3.0265C11.5911 3.2665 11.2667 3.59095 11.0267 3.99984C10.7867 4.40873 10.6667 4.85317 10.6667 5.33317C10.6667 5.81317 10.7867 6.25761 11.0267 6.6665C11.2667 7.07539 11.5911 7.39984 12 7.63984C12.4089 7.87984 12.8533 7.99984 13.3333 7.99984C13.8133 7.99984 14.2578 7.87984 14.6667 7.63984C15.0756 7.39984 15.4 7.07539 15.64 6.6665C15.88 6.25761 16 5.81317 16 5.33317C16 4.85317 15.88 4.40873 15.64 3.99984C15.4 3.59095 15.0756 3.2665 14.6667 3.0265C14.2578 2.7865 13.8133 2.6665 13.3333 2.6665Z" fill="#FF4500"/>
</svg>
