<svg width="26" height="30" viewBox="0 0 26 30" fill="none" xmlns="http://www.w3.org/2000/svg">
<path d="M10.6667 17.3334V20.0001C9.22667 20.0001 7.88444 20.3645 6.64 21.0934C5.43111 21.8045 4.47111 22.7556 3.76 23.9467C3.03111 25.1912 2.66667 26.5423 2.66667 28.0001H0C0 26.0623 0.488889 24.2667 1.46667 22.6134C2.40889 20.9956 3.68 19.7156 5.28 18.7734C6.93333 17.8134 8.72889 17.3334 10.6667 17.3334ZM10.6667 16.0001C9.22667 16.0001 7.88444 15.6356 6.64 14.9067C5.43111 14.1956 4.47111 13.2356 3.76 12.0267C3.03111 10.7823 2.66667 9.43561 2.66667 7.98672C2.66667 6.53783 3.03111 5.19116 3.76 3.94672C4.47111 2.75561 5.43111 1.8045 6.64 1.09338C7.88444 0.364496 9.23111 5.14984e-05 10.68 5.14984e-05C12.1289 5.14984e-05 13.4756 0.364496 14.72 1.09338C15.9111 1.8045 16.8622 2.75561 17.5733 3.94672C18.3022 5.19116 18.6667 6.53783 18.6667 7.98672C18.6667 9.43561 18.3022 10.7823 17.5733 12.0267C16.8622 13.2356 15.9111 14.1956 14.72 14.9067C13.4756 15.6356 12.1244 16.0001 10.6667 16.0001ZM10.6667 13.3334C11.6267 13.3334 12.5156 13.0934 13.3333 12.6134C14.1511 12.1334 14.8 11.4845 15.28 10.6667C15.76 9.84894 16 8.96005 16 8.00005C16 7.04005 15.76 6.15116 15.28 5.33339C14.8 4.51561 14.1511 3.86672 13.3333 3.38672C12.5156 2.90672 11.6267 2.66672 10.6667 2.66672C9.70667 2.66672 8.81778 2.90672 8 3.38672C7.18222 3.86672 6.53333 4.51561 6.05333 5.33339C5.57333 6.15116 5.33333 7.04005 5.33333 8.00005C5.33333 8.96005 5.57333 9.84894 6.05333 10.6667C6.53333 11.4845 7.18222 12.1334 8 12.6134C8.81778 13.0934 9.70667 13.3334 10.6667 13.3334ZM18.6667 27.3334L14.7467 29.3867L15.4933 25.0134L12.32 21.9467L16.72 21.3067L18.6667 17.3334L20.64 21.3067L25.0133 21.9467L21.84 25.0134L22.5867 29.3867L18.6667 27.3334Z" fill="#FF4500"/>
</svg>
