<svg width="32" height="27" viewBox="0 0 32 27" fill="none" xmlns="http://www.w3.org/2000/svg">
<path d="M5.33333 12.4532L0 9.33317L16 -0.000164032L32 9.33317V20.6665H29.3333V10.8798L26.6667 12.4532V21.3598L26.3733 21.7065C25.1289 23.2532 23.6178 24.4621 21.84 25.3332C20.0089 26.2221 18.0622 26.6665 16 26.6665C13.9378 26.6665 11.9911 26.2221 10.16 25.3332C8.38222 24.4621 6.87111 23.2532 5.62667 21.7065L5.33333 21.3598V12.4532ZM8 13.9998V20.3998C8.99556 21.5198 10.1778 22.3909 11.5467 23.0132C12.9511 23.6709 14.4356 23.9998 16 23.9998C17.5644 23.9998 19.0489 23.6709 20.4533 23.0132C21.8222 22.3909 23.0044 21.5198 24 20.3998V13.9998L16 18.6665L8 13.9998ZM5.28 9.33317L16 15.5732L26.72 9.33317L16 3.09317L5.28 9.33317Z" fill="#FF4500"/>
</svg>
