<svg width="40" height="40" viewBox="0 0 40 40" fill="none" xmlns="http://www.w3.org/2000/svg">
<rect width="40" height="40" rx="20" fill="#161B36"/>
<path d="M25.0615 16.6663C25.0348 16.5686 24.9903 16.4841 24.9281 16.413C24.8659 16.3419 24.7903 16.293 24.7015 16.2663C24.4881 16.2041 24.0437 16.1508 23.3681 16.1063C22.4348 16.0352 21.3103 15.9997 19.9948 15.9997C18.6792 15.9997 17.5548 16.0352 16.6215 16.1063C15.9459 16.1508 15.5015 16.2041 15.2881 16.2663C15.1992 16.293 15.1237 16.3419 15.0615 16.413C14.9992 16.4841 14.9548 16.5686 14.9281 16.6663C14.8659 16.8797 14.8126 17.2352 14.7681 17.733C14.697 18.4263 14.6615 19.1819 14.6615 19.9997C14.6615 20.8175 14.697 21.573 14.7681 22.2663C14.8126 22.7641 14.8659 23.1197 14.9281 23.333C14.9548 23.4308 14.9992 23.5152 15.0615 23.5863C15.1237 23.6575 15.1992 23.7063 15.2881 23.733C15.5015 23.7952 15.9459 23.8486 16.6215 23.893C17.5548 23.9641 18.6792 23.9997 19.9948 23.9997C21.3103 23.9997 22.4348 23.9641 23.3681 23.893C24.0437 23.8486 24.4881 23.7952 24.7015 23.733C24.7903 23.7063 24.8659 23.6575 24.9281 23.5863C24.9903 23.5152 25.0348 23.4308 25.0615 23.333C25.1237 23.1197 25.177 22.7641 25.2215 22.2663C25.2926 21.573 25.3281 20.8175 25.3281 19.9997C25.3281 19.1819 25.2926 18.4263 25.2215 17.733C25.177 17.2352 25.1237 16.8797 25.0615 16.6663ZM26.3548 16.333C26.4792 16.8308 26.5681 17.5908 26.6215 18.613C26.6481 19.1197 26.6615 19.5819 26.6615 19.9997L26.6481 20.693C26.6303 21.2352 26.6037 21.733 26.5681 22.1863C26.5148 22.8175 26.4437 23.3108 26.3548 23.6663C26.2748 23.9952 26.1192 24.2797 25.8881 24.5197C25.657 24.7597 25.3815 24.9241 25.0615 25.013C24.5903 25.1463 23.6037 25.2397 22.1015 25.293C21.3548 25.3197 20.6526 25.333 19.9948 25.333L18.9281 25.3197C18.1015 25.3019 17.3726 25.2752 16.7415 25.2397C15.8703 25.1863 15.2659 25.1108 14.9281 25.013C14.6081 24.9241 14.3326 24.7597 14.1015 24.5197C13.8703 24.2797 13.7148 23.9952 13.6348 23.6663C13.5459 23.3108 13.4748 22.8175 13.4215 22.1863C13.3859 21.733 13.3592 21.2352 13.3415 20.693L13.3281 19.9997L13.3415 19.3063C13.3592 18.7641 13.3859 18.2663 13.4215 17.813C13.4748 17.1819 13.5459 16.6886 13.6348 16.333C13.7148 16.0041 13.8703 15.7197 14.1015 15.4797C14.3326 15.2397 14.6081 15.0752 14.9281 14.9863C15.2659 14.8886 15.8703 14.813 16.7415 14.7597C17.3726 14.7241 18.1015 14.6975 18.9281 14.6797L19.9948 14.6663L21.0615 14.6797C21.8881 14.6975 22.617 14.7241 23.2481 14.7597C24.1192 14.813 24.7237 14.8886 25.0615 14.9863C25.3815 15.0752 25.657 15.2397 25.8881 15.4797C26.1192 15.7197 26.2748 16.0041 26.3548 16.333ZM18.6615 22.333V17.6663L22.6615 19.9997L18.6615 22.333Z" fill="white"/>
</svg>
