<svg width="12" height="15" viewBox="0 0 12 15" fill="none" xmlns="http://www.w3.org/2000/svg">
<path d="M6 12.6063L9.29333 9.29966C9.89778 8.70411 10.3067 8.00188 10.52 7.19299C10.7244 6.40188 10.7244 5.61077 10.52 4.81966C10.3067 4.01077 9.9 3.30633 9.3 2.70633C8.7 2.10633 7.99556 1.69966 7.18667 1.48633C6.39556 1.28188 5.60444 1.28188 4.81333 1.48633C4.00444 1.69966 3.3 2.10633 2.7 2.70633C2.1 3.30633 1.69333 4.01077 1.48 4.81966C1.27556 5.61077 1.27556 6.40188 1.48 7.19299C1.69333 8.00188 2.10222 8.70411 2.70667 9.29966L6 12.6063ZM6 14.4863L1.76 10.2463C0.986667 9.48188 0.466667 8.57522 0.2 7.52633C-0.0666667 6.51299 -0.0666667 5.49966 0.2 4.48633C0.466667 3.43744 0.984444 2.52855 1.75333 1.75966C2.52222 0.990772 3.43111 0.46855 4.48 0.192994C5.49333 -0.0647831 6.50667 -0.0647831 7.52 0.192994C8.56889 0.46855 9.47778 0.990772 10.2467 1.75966C11.0156 2.52855 11.5333 3.43744 11.8 4.48633C12.0667 5.49966 12.0667 6.51299 11.8 7.52633C11.5333 8.57522 11.0133 9.48188 10.24 10.2463L6 14.4863ZM6 7.33966C6.24 7.33966 6.46222 7.27966 6.66667 7.15966C6.87111 7.03966 7.03333 6.87744 7.15333 6.67299C7.27333 6.46855 7.33333 6.24633 7.33333 6.00633C7.33333 5.76633 7.27333 5.54411 7.15333 5.33966C7.03333 5.13522 6.87111 4.97299 6.66667 4.85299C6.46222 4.73299 6.24 4.67299 6 4.67299C5.76 4.67299 5.53778 4.73299 5.33333 4.85299C5.12889 4.97299 4.96667 5.13522 4.84667 5.33966C4.72667 5.54411 4.66667 5.76633 4.66667 6.00633C4.66667 6.24633 4.72667 6.46855 4.84667 6.67299C4.96667 6.87744 5.12889 7.03966 5.33333 7.15966C5.53778 7.27966 5.76 7.33966 6 7.33966ZM6 8.67299C5.52 8.67299 5.07556 8.55299 4.66667 8.31299C4.25778 8.07299 3.93333 7.74855 3.69333 7.33966C3.45333 6.93077 3.33333 6.48411 3.33333 5.99966C3.33333 5.51522 3.45333 5.07077 3.69333 4.66633C3.93333 4.26188 4.25778 3.93966 4.66667 3.69966C5.07556 3.45966 5.52 3.33966 6 3.33966C6.48 3.33966 6.92444 3.45966 7.33333 3.69966C7.74222 3.93966 8.06667 4.26188 8.30667 4.66633C8.54667 5.07077 8.66667 5.51522 8.66667 5.99966C8.66667 6.48411 8.54667 6.93077 8.30667 7.33966C8.06667 7.74855 7.74222 8.07299 7.33333 8.31299C6.92444 8.55299 6.48 8.67299 6 8.67299Z" fill="#FF4500"/>
</svg>
