<svg width="12" height="12" viewBox="0 0 12 12" fill="none" xmlns="http://www.w3.org/2000/svg">
<path d="M4.24 5.12C4.55111 5.67111 4.93111 6.17111 5.38 6.62C5.82889 7.06889 6.32889 7.44889 6.88 7.76L7.46667 6.93333C7.56444 6.79111 7.69556 6.70222 7.86 6.66667C8.02444 6.63111 8.18222 6.65333 8.33333 6.73333C9.28444 7.25778 10.3022 7.56 11.3867 7.64C11.5556 7.65778 11.7 7.72889 11.82 7.85333C11.94 7.97778 12 8.12889 12 8.30667V11.28C12 11.4489 11.9422 11.5978 11.8267 11.7267C11.7111 11.8556 11.5689 11.9289 11.4 11.9467C11.0444 11.9822 10.6889 12 10.3333 12C8.92889 12 7.58667 11.7289 6.30667 11.1867C5.07111 10.6622 3.97778 9.92444 3.02667 8.97333C2.07556 8.02222 1.33778 6.92889 0.813333 5.69333C0.271111 4.41333 0 3.07111 0 1.66667C0 1.31111 0.0177778 0.955555 0.0533333 0.599999C0.0711111 0.43111 0.144444 0.288889 0.273333 0.173333C0.402222 0.0577774 0.551111 0 0.72 0H3.69333C3.87111 0 4.02222 0.0599995 4.14667 0.179999C4.27111 0.3 4.34222 0.444444 4.36 0.613333C4.44 1.69778 4.74222 2.71556 5.26667 3.66667C5.34667 3.81778 5.36889 3.97556 5.33333 4.14C5.29778 4.30444 5.20889 4.43556 5.06667 4.53333L4.24 5.12ZM2.56 4.68L3.82667 3.77333C3.47111 3 3.22667 2.18667 3.09333 1.33333H1.33333V1.66667C1.33333 2.88444 1.56889 4.05333 2.04 5.17333C2.49333 6.24889 3.13556 7.20222 3.96667 8.03333C4.79778 8.86444 5.75111 9.50667 6.82667 9.96C7.94667 10.4311 9.11556 10.6667 10.3333 10.6667H10.6667V8.90667C9.81333 8.77333 9 8.52889 8.22667 8.17333L7.32 9.44C6.95556 9.29778 6.6 9.12889 6.25333 8.93333L6.21333 8.92C5.56444 8.54667 4.97333 8.09333 4.44 7.56C3.90667 7.02667 3.45333 6.43556 3.08 5.78667L3.06667 5.74667C2.87111 5.4 2.70222 5.04444 2.56 4.68Z" fill="#FF4500"/>
</svg>
