<svg width="14" height="12" viewBox="0 0 14 12" fill="none" xmlns="http://www.w3.org/2000/svg">
<path d="M0.666667 0H12.6667C12.8533 0 13.0111 0.0644445 13.14 0.193333C13.2689 0.322222 13.3333 0.48 13.3333 0.666666V11.3333C13.3333 11.52 13.2689 11.6778 13.14 11.8067C13.0111 11.9356 12.8533 12 12.6667 12H0.666667C0.48 12 0.322222 11.9356 0.193333 11.8067C0.0644444 11.6778 0 11.52 0 11.3333V0.666666C0 0.48 0.0644444 0.322222 0.193333 0.193333C0.322222 0.0644445 0.48 0 0.666667 0ZM12 2.82667L6.72 7.56L1.33333 2.81333V10.6667H12V2.82667ZM1.68 1.33333L6.70667 5.77333L11.6667 1.33333H1.68Z" fill="#FF4500"/>
</svg>
