<svg width="40" height="40" viewBox="0 0 40 40" fill="none" xmlns="http://www.w3.org/2000/svg">
<rect width="40" height="40" rx="20" fill="#161B36"/>
<path d="M19.9948 18.0003C19.6303 18.0003 19.2948 18.0892 18.9881 18.267C18.6815 18.4448 18.4392 18.687 18.2615 18.9937C18.0837 19.3003 17.9948 19.6359 17.9948 20.0003C17.9948 20.3648 18.0837 20.7003 18.2615 21.007C18.4392 21.3137 18.6815 21.5559 18.9881 21.7337C19.2948 21.9114 19.6303 22.0003 19.9948 22.0003C20.3592 22.0003 20.6948 21.9114 21.0015 21.7337C21.3081 21.5559 21.5503 21.3137 21.7281 21.007C21.9059 20.7003 21.9948 20.3648 21.9948 20.0003C21.9948 19.6359 21.9059 19.3003 21.7281 18.9937C21.5503 18.687 21.3081 18.4448 21.0015 18.267C20.6948 18.0892 20.3592 18.0003 19.9948 18.0003ZM19.9948 16.667C20.5992 16.667 21.157 16.8159 21.6681 17.1137C22.1792 17.4114 22.5837 17.8159 22.8815 18.327C23.1792 18.8381 23.3281 19.3959 23.3281 20.0003C23.3281 20.6048 23.1792 21.1625 22.8815 21.6737C22.5837 22.1848 22.1792 22.5892 21.6681 22.887C21.157 23.1848 20.5992 23.3337 19.9948 23.3337C19.3903 23.3337 18.8326 23.1848 18.3215 22.887C17.8103 22.5892 17.4059 22.1848 17.1081 21.6737C16.8103 21.1625 16.6615 20.6048 16.6615 20.0003C16.6615 19.3959 16.8103 18.8381 17.1081 18.327C17.4059 17.8159 17.8103 17.4114 18.3215 17.1137C18.8326 16.8159 19.3903 16.667 19.9948 16.667ZM24.3281 16.4937C24.3281 16.7248 24.2459 16.9225 24.0815 17.087C23.917 17.2514 23.7215 17.3337 23.4948 17.3337C23.2681 17.3337 23.0726 17.2514 22.9081 17.087C22.7437 16.9225 22.6615 16.727 22.6615 16.5003C22.6615 16.2737 22.7437 16.0781 22.9081 15.9137C23.0726 15.7492 23.2681 15.667 23.4948 15.667C23.7215 15.667 23.917 15.7492 24.0815 15.9137C24.2459 16.0781 24.3281 16.2714 24.3281 16.4937ZM19.9948 14.667C19.177 14.667 18.6215 14.6692 18.3281 14.6737C18.0348 14.6781 17.697 14.6892 17.3148 14.707C16.8348 14.7248 16.4348 14.7959 16.1148 14.9203C15.8392 15.027 15.597 15.1848 15.3881 15.3937C15.1792 15.6025 15.0215 15.8448 14.9148 16.1203C14.7903 16.4403 14.7192 16.8403 14.7015 17.3203C14.6837 17.6848 14.6726 18.0114 14.6681 18.3003C14.6637 18.5892 14.6615 19.1559 14.6615 20.0003C14.6615 20.8181 14.6637 21.3737 14.6681 21.667C14.6726 21.9603 14.6837 22.2981 14.7015 22.6803C14.7192 23.1603 14.7903 23.5603 14.9148 23.8803C15.0215 24.1559 15.1792 24.3981 15.3881 24.607C15.597 24.8159 15.8392 24.9692 16.1148 25.067C16.4348 25.2003 16.8348 25.2759 17.3148 25.2937C17.6792 25.3114 18.0059 25.3225 18.2948 25.327C18.5837 25.3314 19.1503 25.3337 19.9948 25.3337C20.8126 25.3337 21.3681 25.3314 21.6615 25.327C21.9548 25.3225 22.2926 25.3114 22.6748 25.2937C23.1548 25.2759 23.5548 25.2048 23.8748 25.0803C24.1503 24.9737 24.3926 24.8159 24.6015 24.607C24.8103 24.3981 24.9637 24.1559 25.0615 23.8803C25.1948 23.5603 25.2703 23.1603 25.2881 22.6803C25.3059 22.3159 25.317 21.9892 25.3215 21.7003C25.3259 21.4114 25.3281 20.8448 25.3281 20.0003C25.3281 19.1825 25.3259 18.627 25.3215 18.3337C25.317 18.0403 25.3059 17.7025 25.2881 17.3203C25.2703 16.8403 25.1992 16.4403 25.0748 16.1203C24.9681 15.8448 24.8103 15.6025 24.6015 15.3937C24.3926 15.1848 24.1503 15.027 23.8748 14.9203C23.5548 14.7959 23.1548 14.7248 22.6748 14.707C22.3103 14.6892 21.9837 14.6781 21.6948 14.6737C21.4059 14.6692 20.8392 14.667 19.9948 14.667ZM19.9948 13.3337C20.8659 13.3337 21.4615 13.3381 21.7815 13.347C22.0481 13.347 22.3681 13.3559 22.7415 13.3737C23.3637 13.4003 23.9015 13.5025 24.3548 13.6803C24.8081 13.8581 25.2037 14.1159 25.5415 14.4537C25.8792 14.7914 26.137 15.187 26.3148 15.6403C26.4926 16.0937 26.5948 16.6314 26.6215 17.2537C26.6392 17.6359 26.6481 17.9559 26.6481 18.2137C26.657 18.5514 26.6615 19.1514 26.6615 20.0137C26.6615 20.8759 26.657 21.467 26.6481 21.787C26.6481 22.0537 26.6392 22.3737 26.6215 22.747C26.5948 23.3692 26.4926 23.907 26.3148 24.3603C26.137 24.8137 25.8792 25.2092 25.5415 25.547C25.2037 25.8848 24.8081 26.1425 24.3548 26.3203C23.9015 26.4981 23.3637 26.6003 22.7415 26.627C22.3592 26.6448 22.0392 26.6537 21.7815 26.6537C21.4437 26.6625 20.8437 26.667 19.9815 26.667C19.1192 26.667 18.5281 26.6625 18.2081 26.6537C17.9415 26.6537 17.6215 26.6448 17.2481 26.627C16.6259 26.6003 16.0881 26.4981 15.6348 26.3203C15.1815 26.1425 14.7859 25.8848 14.4481 25.547C14.1103 25.2092 13.8526 24.8137 13.6748 24.3603C13.497 23.907 13.3948 23.3692 13.3681 22.747C13.3503 22.3648 13.3415 22.0448 13.3415 21.787C13.3326 21.4492 13.3281 20.8492 13.3281 19.987C13.3281 19.1248 13.3326 18.5337 13.3415 18.2137C13.3415 17.947 13.3503 17.627 13.3681 17.2537C13.3948 16.6314 13.497 16.0937 13.6748 15.6403C13.8526 15.187 14.1103 14.7914 14.4481 14.4537C14.7859 14.1159 15.1815 13.8581 15.6348 13.6803C16.0881 13.5025 16.6259 13.4003 17.2481 13.3737C17.6303 13.3559 17.9503 13.347 18.2081 13.347C18.5459 13.3381 19.1415 13.3337 19.9948 13.3337Z" fill="white"/>
</svg>
