<svg width="40" height="40" viewBox="0 0 40 40" fill="none" xmlns="http://www.w3.org/2000/svg">
<rect width="40" height="40" rx="20" fill="#161B36"/>
<path d="M21.1681 21.0003H22.8348L23.5015 18.3337H21.1681V17.0003C21.1681 16.6981 21.1815 16.4803 21.2081 16.347C21.2615 16.1337 21.377 15.9692 21.5548 15.8537C21.7681 15.7292 22.0837 15.667 22.5015 15.667H23.5015V13.427C23.3504 13.4092 23.1104 13.3914 22.7815 13.3737C22.3726 13.347 21.977 13.3337 21.5948 13.3337C20.9815 13.3337 20.4415 13.4559 19.9748 13.7003C19.5081 13.9448 19.1504 14.2937 18.9015 14.747C18.6348 15.2359 18.5015 15.8092 18.5015 16.467V18.3337H16.5015V21.0003H18.5015V26.667H21.1681V21.0003Z" fill="white"/>
</svg>
