<svg width="24" height="28" viewBox="0 0 24 28" fill="none" xmlns="http://www.w3.org/2000/svg">
<path d="M2.50424 14.9067C2.50424 12.6845 2.90424 10.56 3.70424 8.53337C4.48646 6.57782 5.58424 4.85782 6.99758 3.37337C8.41091 1.88893 10.0242 0.764482 11.8376 3.8147e-05C13.6509 0.764482 15.2642 1.88893 16.6776 3.37337C18.0909 4.85782 19.1887 6.57782 19.9709 8.53337C20.7709 10.56 21.1709 12.6845 21.1709 14.9067C21.1709 15.9911 21.0731 17.0578 20.8776 18.1067L23.4642 20.5334C23.5709 20.64 23.6376 20.7689 23.6642 20.92C23.6909 21.0711 23.6687 21.2178 23.5976 21.36L20.2642 27.44C20.1754 27.6 20.042 27.7067 19.8642 27.76C19.6865 27.8134 19.5176 27.7956 19.3576 27.7067C19.3042 27.6889 19.2509 27.6534 19.1976 27.6L16.2376 24.6134C15.9709 24.3645 15.6509 24.24 15.2776 24.24H8.39758C8.02424 24.24 7.70424 24.3645 7.43758 24.6134L4.47758 27.6C4.33535 27.7245 4.17535 27.7867 3.99758 27.7867C3.8198 27.7867 3.6598 27.7245 3.51758 27.6C3.48202 27.5645 3.44646 27.5112 3.41091 27.44L0.0775758 21.36C0.00646465 21.2178 -0.0157576 21.0711 0.0109091 20.92C0.0375758 20.7689 0.104242 20.64 0.210909 20.5334L2.79758 18.1067C2.60202 17.0578 2.50424 15.9911 2.50424 14.9067ZM4.47758 23.8134L5.57091 22.7467C5.94424 22.3734 6.37535 22.0845 6.86424 21.88C7.35313 21.6756 7.86424 21.5734 8.39758 21.5734H15.2776C15.8109 21.5734 16.322 21.6756 16.8109 21.88C17.2998 22.0845 17.7309 22.3734 18.1042 22.7467L19.1976 23.8134L20.5042 21.4134L19.0376 20.0534C18.7176 19.7334 18.4865 19.36 18.3442 18.9334C18.202 18.5067 18.1754 18.0711 18.2642 17.6267C18.4242 16.72 18.5042 15.8134 18.5042 14.9067C18.5042 13.2 18.2287 11.5645 17.6776 10C17.1265 8.47115 16.3487 7.09782 15.3442 5.88004C14.3398 4.66226 13.1709 3.68893 11.8376 2.96004C10.5042 3.68893 9.33535 4.66226 8.33091 5.88004C7.32646 7.09782 6.54869 8.47115 5.99758 10C5.44646 11.5645 5.17091 13.2 5.17091 14.9067C5.17091 15.8134 5.25091 16.72 5.41091 17.6267C5.4998 18.0711 5.47313 18.5067 5.33091 18.9334C5.18869 19.36 4.95758 19.7334 4.63758 20.0534L3.17091 21.4134L4.47758 23.8134ZM11.8376 14.9067C11.3576 14.9067 10.9131 14.7867 10.5042 14.5467C10.0954 14.3067 9.77091 13.9823 9.53091 13.5734C9.29091 13.1645 9.17091 12.72 9.17091 12.24C9.17091 11.76 9.29091 11.3156 9.53091 10.9067C9.77091 10.4978 10.0954 10.1734 10.5042 9.93337C10.9131 9.69337 11.3576 9.57337 11.8376 9.57337C12.3176 9.57337 12.762 9.69337 13.1709 9.93337C13.5798 10.1734 13.9042 10.4978 14.1442 10.9067C14.3842 11.3156 14.5042 11.76 14.5042 12.24C14.5042 12.72 14.3842 13.1645 14.1442 13.5734C13.9042 13.9823 13.5798 14.3067 13.1709 14.5467C12.762 14.7867 12.3176 14.9067 11.8376 14.9067Z" fill="#FF4500"/>
</svg>
