<svg width="30" height="27" viewBox="0 0 30 27" fill="none" xmlns="http://www.w3.org/2000/svg">
<path d="M24 26.1868H5.33333C4.96 26.1868 4.64444 26.0579 4.38667 25.8001C4.12889 25.5423 4 25.2268 4 24.8534V12.8534H0L13.76 0.346767C14.0267 0.115656 14.3289 0.000101089 14.6667 0.000101089C15.0044 0.000101089 15.3067 0.115656 15.5733 0.346767L29.3333 12.8534H25.3333V24.8534C25.3333 25.2268 25.2044 25.5423 24.9467 25.8001C24.6889 26.0579 24.3733 26.1868 24 26.1868ZM16 23.5201H22.6667V10.4001L14.6667 3.1201L6.66667 10.4001V23.5201H13.3333V15.5201H16V23.5201Z" fill="#FF4500"/>
</svg>
