<svg width="26" height="26" viewBox="0 0 26 26" fill="none" xmlns="http://www.w3.org/2000/svg">
<path d="M1.22667 7.74856C0.408889 9.41967 0 11.1797 0 13.0286C0 15.2152 0.542222 17.2419 1.62667 19.1086C2.69333 20.9041 4.13333 22.3352 5.94667 23.4019C7.79556 24.4863 9.81333 25.0286 12 25.0286C13.8489 25.0286 15.6089 24.6286 17.28 23.8286C18.5067 24.3441 19.6089 24.6463 20.5867 24.7352C21.2444 24.7886 21.8489 24.7352 22.4 24.5752C23.0222 24.4152 23.5467 24.1219 23.9733 23.6952C24.4356 23.2152 24.7467 22.6286 24.9067 21.9352C25.0489 21.3308 25.0667 20.6641 24.96 19.9352C24.8 18.7619 24.3556 17.4463 23.6267 15.9886C23.8756 15.0286 24 14.0419 24 13.0286C24 10.8597 23.4489 8.8419 22.3467 6.97523C21.2978 5.17967 19.8667 3.74856 18.0533 2.6819C16.1867 1.57968 14.1689 1.02856 12 1.02856C10.9867 1.02856 10 1.15301 9.04 1.4019C7.58222 0.673008 6.26667 0.228563 5.09333 0.0685635C4.36444 -0.0381031 3.69778 -0.0203247 3.09333 0.121897C2.4 0.281897 1.81333 0.593008 1.33333 1.05523C0.906667 1.4819 0.613333 2.00634 0.453333 2.62856C0.293333 3.17967 0.24 3.78412 0.293333 4.4419C0.382222 5.41968 0.693333 6.5219 1.22667 7.74856ZM3.09333 5.0019C3.02222 4.71745 2.97778 4.45079 2.96 4.2019C2.90667 3.59745 2.99556 3.17967 3.22667 2.94856C3.49333 2.6819 4 2.6019 4.74667 2.70856C4.99556 2.74412 5.28 2.80634 5.6 2.89523C4.65778 3.4819 3.82222 4.18412 3.09333 5.0019ZM22.1333 19.4552C22.2222 19.7575 22.2844 20.033 22.32 20.2819C22.4267 21.0286 22.3467 21.5352 22.08 21.8019C21.8489 22.033 21.4311 22.1219 20.8267 22.0686C20.5778 22.0508 20.3111 22.0063 20.0267 21.9352C20.8444 21.2063 21.5467 20.3797 22.1333 19.4552ZM17.1733 20.8152C16.0178 20.2108 14.8267 19.4375 13.6 18.4952C12.3022 17.5175 11.0444 16.4197 9.82667 15.2019C8.60889 13.9841 7.51111 12.7263 6.53333 11.4286C5.59111 10.2019 4.81778 9.01079 4.21333 7.85523C4.81778 6.96634 5.55556 6.19745 6.42667 5.54856C7.29778 4.89968 8.24889 4.41523 9.28 4.09523C10.1511 3.82856 11.0578 3.69523 12 3.69523C13.6889 3.69523 15.2533 4.1219 16.6933 4.97523C18.0978 5.81079 19.2178 6.93079 20.0533 8.33523C20.9067 9.77523 21.3333 11.3397 21.3333 13.0286C21.3333 13.9708 21.2 14.8775 20.9333 15.7486C20.6133 16.7797 20.1289 17.7308 19.48 18.6019C18.8311 19.473 18.0622 20.2108 17.1733 20.8152ZM14.1333 22.1219C13.44 22.2819 12.7289 22.3619 12 22.3619C10.3111 22.3619 8.73778 21.9441 7.28 21.1086C5.87556 20.273 4.75556 19.153 3.92 17.7486C3.08444 16.3086 2.66667 14.7352 2.66667 13.0286C2.66667 12.3175 2.74667 11.6063 2.90667 10.8952C4.24 13.0108 5.91556 15.0775 7.93333 17.0952C9.95111 19.113 12.0178 20.7886 14.1333 22.1219Z" fill="#FF4500"/>
</svg>
