<svg width="40" height="40" viewBox="0 0 40 40" fill="none" xmlns="http://www.w3.org/2000/svg">
<rect width="40" height="40" rx="20" fill="url(#paint0_linear_6_441)"/>
<path d="M19.6201 28.88C20.9319 28.88 22.1782 28.5972 23.3643 28.0294L23.5664 27.9318L23.7734 28.0187C24.6592 28.391 25.4332 28.6009 26.0996 28.6622L26.1006 28.6613C26.5422 28.6971 26.9334 28.6603 27.2803 28.5597L27.2959 28.5558C27.6815 28.4566 27.9936 28.2789 28.2461 28.0265C28.5223 27.7373 28.7122 27.3821 28.8125 26.9474L28.8135 26.9454C28.9033 26.5636 28.9183 26.1277 28.8457 25.632L28.8447 25.6271C28.7343 24.8177 28.4232 23.8846 27.8926 22.8234L27.8086 22.6564L27.8564 22.4747C28.0323 21.7966 28.1201 21.0986 28.1201 20.38C28.1201 18.8427 27.7304 17.4168 26.9492 16.0939L26.9482 16.0919C26.2517 14.8997 25.3189 13.9361 24.1445 13.1964L23.9062 13.0509C22.5833 12.2697 21.1574 11.88 19.6201 11.88C18.9015 11.88 18.2035 11.9679 17.5254 12.1437L17.3438 12.1915L17.1768 12.1075C16.1156 11.5769 15.1825 11.2658 14.373 11.1554L14.4277 10.7501L14.4268 10.756L14.3721 11.1554L14.3682 11.1544C13.8724 11.0819 13.4365 11.0968 13.0547 11.1866L13.0527 11.1876L12.8916 11.2296C12.5292 11.337 12.2263 11.5127 11.9736 11.754C11.7212 12.0065 11.5435 12.3186 11.4443 12.7042L11.4404 12.7198L11.377 12.9884C11.3258 13.2655 11.311 13.5693 11.3379 13.9005C11.399 14.5641 11.6142 15.3358 11.999 16.2208L12.0908 16.4327L11.9893 16.6398C11.4092 17.8251 11.1201 19.07 11.1201 20.38C11.1201 21.933 11.5031 23.3669 12.2715 24.6896C13.0278 25.9611 14.0466 26.9729 15.333 27.7296C16.6413 28.4969 18.0673 28.88 19.6201 28.88ZM12.4551 14.4816C12.4107 14.3039 12.3777 14.1304 12.3574 13.962L12.3418 13.8038C12.2991 13.32 12.3475 12.8062 12.6865 12.4669C12.8839 12.2695 13.14 12.1716 13.3975 12.131C13.6539 12.0905 13.9427 12.1006 14.251 12.1447C14.4644 12.1752 14.6996 12.2273 14.9541 12.298L16.0508 12.6027L15.084 13.2042C14.4174 13.6193 13.8279 14.1154 13.3135 14.6925L12.6846 15.3986L12.4551 14.4816ZM23.2686 26.6632C22.3733 26.1949 21.457 25.5989 20.5195 24.879C19.5265 24.1309 18.5655 23.2922 17.6367 22.3634C16.7091 21.4358 15.8714 20.4761 15.124 19.4845C14.4029 18.5457 13.8058 17.628 13.3369 16.7316L13.1982 16.4669L13.3662 16.2189C13.8512 15.5057 14.4441 14.8888 15.1416 14.3693C15.8401 13.849 16.6039 13.4592 17.4316 13.2023H17.4336C18.136 12.9873 18.8656 12.88 19.6201 12.88C20.9756 12.88 22.2367 13.2242 23.3945 13.9103H23.3955C24.5205 14.5796 25.4206 15.4797 26.0898 16.6046V16.6056C26.7759 17.7634 27.1201 19.0246 27.1201 20.38C27.1201 21.1346 27.0129 21.8642 26.7979 22.5665V22.5685L26.6953 22.8761C26.4416 23.5864 26.0861 24.2474 25.6309 24.8585C25.1113 25.556 24.4945 26.1489 23.7812 26.6339L23.5332 26.8019L23.2686 26.6632ZM19.6201 27.88C18.2667 27.88 17.0005 27.5444 15.8311 26.8741L15.8242 26.8693C14.6996 26.2001 13.8 25.3005 13.1309 24.1759L13.1279 24.171C12.4559 23.0128 12.1201 21.7458 12.1201 20.38C12.1201 19.8088 12.1846 19.2385 12.3125 18.67L12.5781 17.4894L13.2227 18.5138C14.2003 20.0649 15.4332 21.5857 16.9238 23.0763C18.4144 24.5669 19.9352 25.7999 21.4863 26.7775L22.5029 27.4171L21.333 27.6876C20.7752 27.8163 20.2037 27.88 19.6201 27.88ZM26.3789 27.6691L26.1963 27.6583C25.9788 27.6422 25.7523 27.6035 25.5186 27.545L24.6016 27.3156L25.3076 26.6866C25.8863 26.1708 26.3827 25.5859 26.7979 24.9318L27.3887 24.0011L27.7002 25.0587C27.772 25.3029 27.8247 25.5336 27.8555 25.7491C27.8995 26.0574 27.9096 26.3463 27.8691 26.6027C27.8285 26.8601 27.7306 27.1162 27.5332 27.3136C27.2364 27.6102 26.806 27.6838 26.3789 27.6691Z" stroke="white"/>
<defs>
<linearGradient id="paint0_linear_6_441" x1="0" y1="0" x2="40" y2="40" gradientUnits="userSpaceOnUse">
<stop stop-color="#FF4500" stop-opacity="0.8"/>
<stop offset="1" stop-color="#FF4500"/>
</linearGradient>
</defs>
</svg>
